<?xml version="1.0" encoding="UTF-8" standalone="no"?>
<svg
   xmlns:dc="http://purl.org/dc/elements/1.1/"
   xmlns:cc="http://creativecommons.org/ns#"
   xmlns:rdf="http://www.w3.org/1999/02/22-rdf-syntax-ns#"
   xmlns:svg="http://www.w3.org/2000/svg"
   xmlns="http://www.w3.org/2000/svg"
   xmlns:sodipodi="http://sodipodi.sourceforge.net/DTD/sodipodi-0.dtd"
   xmlns:inkscape="http://www.inkscape.org/namespaces/inkscape"
   viewBox="0 0 200 128.75"
   version="1.1"
   id="svg3742"
   sodipodi:docname="COSCOCS-ver3.svg"
   inkscape:version="0.92.1 r15371">
  <metadata
     id="metadata3746">
    <rdf:RDF>
      <cc:Work
         rdf:about="">
        <dc:format>image/svg+xml</dc:format>
        <dc:type
           rdf:resource="http://purl.org/dc/dcmitype/StillImage" />
        <dc:title>COSCOCS</dc:title>
      </cc:Work>
    </rdf:RDF>
  </metadata>
  <sodipodi:namedview
     pagecolor="#ffffff"
     bordercolor="#666666"
     borderopacity="1"
     objecttolerance="10"
     gridtolerance="10"
     guidetolerance="10"
     inkscape:pageopacity="0"
     inkscape:pageshadow="2"
     inkscape:window-width="1920"
     inkscape:window-height="1017"
     id="namedview3744"
     showgrid="false"
     inkscape:zoom="5.95"
     inkscape:cx="78.571429"
     inkscape:cy="64.375"
     inkscape:window-x="-8"
     inkscape:window-y="-8"
     inkscape:window-maximized="1"
     inkscape:current-layer="svg3742" />
  <defs
     id="defs3682">
    <style
       id="style3680">.cls-1{fill:#154b83;}.cls-2{fill:#bd1d21;}.cls-3{fill:#e60012;stroke:#e60012;stroke-miterlimit:10;stroke-width:0.5px;}</style>
  </defs>
  <title
     id="title3684">COSCOCS</title>
  <g
     data-name="レイヤー 23"
     id="レイヤー_23">
    <path
       style="fill:#154b83"
       inkscape:connector-curvature="0"
       id="path3686"
       d="m 176.65,71.56 c -13.79,0 -18.71,-8.2 -18.71,-15.88 0,-9.93 7.37,-15.86 19.72,-15.86 13,0 20.22,5.52 20.22,15.53 0,10.49 -6.61,15.79 -20.2,16.19 z m 1,-25.45 c -7.11,0 -8.6,5 -8.6,9.27 0,6.29 2.88,9.22 9,9.22 6.12,0 9,-3.06 9,-9.34 0,-6.93 -2.31,-9.15 -9.49,-9.15 z"
       class="cls-1" />
  </g>
  <g
     data-name="レイヤー 22"
     id="レイヤー_22">
    <path
       style="fill:#154b83"
       inkscape:connector-curvature="0"
       id="path3689"
       d="m 136.61,70.33 v -0.06 c -14.09,-0.76 -17.08,-8.35 -17.09,-14.61 0,-4.23 1.27,-7.63 3.81,-10.11 3.08,-3 7.94,-4.52 14.46,-4.52 h 1.2 14.45 v 6 h -14.32 c -2.81,0 -4.89,0.66 -6.18,2 -1.29,1.34 -1.93,3.41 -1.86,6.25 v 0.27 c 0,2.51 0,7.74 8.42,8.35 l 13.93,0.18 v 6.25 z"
       class="cls-1" />
  </g>
  <g
     data-name="レイヤー 24"
     id="レイヤー_24">
    <path
       style="fill:#154b83"
       inkscape:connector-curvature="0"
       id="path3692"
       d="m 84.44,69.93 v -6 H 100 c 1,0 2.82,-0.15 3.79,-1.14 A 2.33,2.33 0 0 0 104.4,61 c -0.06,-2 -1.3,-2.94 -3.9,-2.94 h -6.71 c -3.86,-0.09 -6.56,-0.95 -8.25,-2.63 -1.43,-1.43 -2.1,-3.35 -2.1,-6.07 0,-5.94 3.55,-8.71 11.16,-8.71 h 19.16 v 6 H 97 a 3.83,3.83 0 0 0 -2.6,0.63 2.9,2.9 0 0 0 -0.67,2.1 2.54,2.54 0 0 0 0.56,1.91 c 0.7,0.71 2.11,0.77 3.62,0.77 h 4.88 c 5.65,0 8.71,1.84 10.29,3.38 a 7.75,7.75 0 0 1 2.41,5.64 8.41,8.41 0 0 1 -2.24,6.21 c -1.73,1.72 -4.47,2.6 -8.13,2.6 h -4 -16.68 z"
       class="cls-1" />
  </g>
  <g
     data-name="レイヤー 6"
     id="レイヤー_6">
    <path
       style="fill:#154b83"
       inkscape:connector-curvature="0"
       id="path3695"
       d="m 57.25,71.66 c -13.79,0 -18.71,-8.2 -18.71,-15.88 0,-9.93 7.37,-15.86 19.73,-15.86 13,0 20.23,5.52 20.23,15.53 0,10.49 -6.61,15.79 -20.2,16.19 h -1 z m 1,-25.45 c -7.11,0 -8.6,5 -8.6,9.27 0,6.29 2.87,9.22 9,9.22 6.13,0 9,-3.06 9,-9.34 0,-6.93 -2.31,-9.15 -9.49,-9.15 z"
       class="cls-1" />
  </g>
  <g
     data-name="レイヤー 5"
     id="レイヤー_5">
    <path
       style="fill:#154b83"
       inkscape:connector-curvature="0"
       id="path3698"
       d="M 17.55,70.33 V 70.27 C 3.46,69.51 0.47,61.92 0.46,55.66 c 0,-4.23 1.27,-7.63 3.81,-10.11 3.08,-3 7.93,-4.52 14.44,-4.52 h 1.22 14.45 v 6 H 20 c -2.76,0 -4.82,0.66 -6.11,2 -1.8,1.81 -1.76,4.59 -1.74,6.08 V 56 c -0.13,2.36 -0.4,7.24 8.31,7.86 l 13.93,0.18 v 6.25 z"
       class="cls-1" />
  </g>
  <g
     data-name="レイヤー 20"
     id="レイヤー_20">
    <rect
       style="fill:#154b83"
       id="rect3702"
       transform="rotate(90,66.42,86.17)"
       height="5.2600002"
       width="17.540001"
       y="83.540001"
       x="57.650002"
       class="cls-1" />
  </g>
  <g
     data-name="レイヤー 19"
     id="レイヤー_19">
    <rect
       style="fill:#154b83"
       id="rect3705"
       transform="rotate(90,132.415,86.455)"
       height="5.2600002"
       width="17.540001"
       y="83.82"
       x="123.65"
       class="cls-1" />
  </g>
  <g
     data-name="レイヤー 4"
     id="レイヤー_4">
    <path
       style="fill:#154b83"
       inkscape:connector-curvature="0"
       id="path3708"
       d="M 103.65,95.1 V 77.56 h 11.23 c 6.31,0.4 7.63,3.2 7.63,5.48 0,3.21 -3.19,5.46 -7.77,5.46 h -5.83 v 6.6 z m 10.2,-9.46 c 2,0 3.21,-0.95 3.21,-2.6 0,-1.48 -1.38,-2.6 -3.21,-2.6 h -4.95 v 5.2 z"
       class="cls-1" />
  </g>
  <g
     data-name="レイヤー 15"
     id="レイヤー_15">
    <path
       style="fill:#154b83"
       inkscape:connector-curvature="0"
       id="path3711"
       d="M 78.13,95.22 V 77.68 h 11.22 c 6.31,0.4 7.63,3.2 7.63,5.48 0,3.21 -3.2,5.46 -7.77,5.46 h -5.83 v 6.58 z m 10.2,-9.46 c 2,0 3.2,-0.95 3.2,-2.6 0,-1.48 -1.38,-2.6 -3.2,-2.6 h -4.94 v 5.2 z"
       class="cls-1" />
  </g>
  <g
     data-name="レイヤー 16"
     id="レイヤー_16">
    <path
       style="fill:#154b83"
       inkscape:connector-curvature="0"
       id="path3714"
       d="M 178.89,94.95 A 10.15,10.15 0 0 1 171.73,92.39 8.52,8.52 0 0 1 169.27,86 c 0,-5.77 3.58,-8.94 10.07,-8.94 h 10.06 v 4.38 h -11.73 c -1.75,0.25 -3.1,2.21 -3.1,4.56 0,2.59 1.58,4.7 3.52,4.7 l 6.38,-0.13 v -4.26 h 4.92 v 8.63 h -10.5 z"
       class="cls-1" />
  </g>
  <g
     data-name="レイヤー 17"
     id="レイヤー_17">
    <polygon
       style="fill:#154b83"
       id="polygon3717"
       points="149.05,94.94 143.79,94.94 143.79,77.4 148.75,77.4 157.06,87.8 157.06,77.68 162.32,77.68 162.32,95.22 157.49,95.22 149.05,84.78 "
       class="cls-1" />
  </g>
  <g
     data-name="レイヤー 18"
     id="レイヤー_18">
    <polygon
       style="fill:#154b83"
       id="polygon3720"
       points="41.96,88.05 41.99,94.94 36.72,94.94 36.72,77.4 41.99,77.4 41.93,84.13 49.79,84.28 49.79,77.4 55.05,77.4 55.05,94.94 49.79,94.94 49.79,88.05 "
       class="cls-1" />
  </g>
  <g
     data-name="レイヤー 21"
     id="レイヤー_21">
    <path
       style="fill:#154b83"
       inkscape:connector-curvature="0"
       id="path3723"
       d="m 10.19,95.22 v -3.75 h 10.08 c 2.7,-0.1 2.7,-1.15 2.7,-1.72 0,-1 -1,-1.64 -2.72,-1.71 H 15.9 c -2.36,-0.05 -4,-0.57 -5,-1.59 A 4.92,4.92 0 0 1 9.62,82.73 c 0,-3.58 2.23,-5.32 6.81,-5.32 H 28 v 3.76 H 18 a 3.12,3.12 0 0 0 -2.2,0.64 1.27,1.27 0 0 0 -0.38,1 c 0,1.29 1.46,1.56 2.68,1.56 h 5.26 a 6.34,6.34 0 0 1 4.29,1.59 5.26,5.26 0 0 1 1.45,3.91 5.1,5.1 0 0 1 -1.38,3.77 6.9,6.9 0 0 1 -5,1.62 h -2.43 z"
       class="cls-1" />
  </g>
  <g
     data-name="レイヤー 12"
     id="レイヤー_12">
    <path
       style="fill:#bd1d21"
       inkscape:connector-curvature="0"
       id="path3727"
       d="M 174.31,33.31 C 161.52,12.89 140.81,1.18 117.5,1.18 93.44,1.18 71.28,13.48 59.83,33.37 l -0.49,0.81 h 8.32 l 0.16,-0.29 C 78.29,15.41 96,5.23 117.83,5.23 c 19.62,0 39.52,11.78 48.41,28.64 l 0.16,0.3 h 8.45 z"
       class="cls-2" />
  </g>
  <g
     data-name="レイヤー 11"
     id="レイヤー_11">
    <path
       style="fill:#154b83"
       inkscape:connector-curvature="0"
       id="path3730"
       d="m 32.9,34.3 h -8.38 l 0.58,-1 c 1,-1.73 2.06,-3.41 3.19,-5 C 40.36,11.24 60.68,1 82.63,1 c 22.93,0 42.11,10.82 57,32.16 l 0.66,1.12 h -8.92 l -0.2,-0.38 C 123.83,20.05 104.17,5.33 82.29,5.33 A 56.42,56.42 0 0 0 33.12,34 Z"
       class="cls-1" />
  </g>
  <g
     data-name="レイヤー 7"
     id="レイヤー_7">
    <path
       style="fill:#154b83"
       inkscape:connector-curvature="0"
       id="path3733"
       d="m 135.23,100.71 h -7.74 l -0.17,0.22 a 56.62,56.62 0 0 1 -45.49,22 c -18.2,0 -33.53,-7.6 -44.33,-22 l -0.17,-0.23 h -7.88 l 0.71,0.92 a 65.66,65.66 0 0 0 52.25,25.19 c 20.6,0 39.19,-8.66 51.73,-24.54 0.31,-0.39 0.76,-1.08 1.09,-1.56 z"
       class="cls-1" />
  </g>
  <g
     data-name="レイヤー 9"
     id="レイヤー_9">
    <path
       style="fill:#e60012;stroke:#e60012;stroke-width:0.5px;stroke-miterlimit:10"
       inkscape:connector-curvature="0"
       id="path3736"
       d="m 117.17,126.53 a 65.38,65.38 0 0 1 -52,-25.08 l -0.36,-0.46 h 7.44 l 0.09,0.11 c 11.1,13.82 26.94,21.75 43.46,21.75 h 1 A 61.91,61.91 0 0 0 162,101.1 l 0.08,-0.1 h 7.43 l -0.36,0.46 a 65.37,65.37 0 0 1 -51.98,25.07 z"
       class="cls-3" />
    <path
       style="fill:#bd1d21"
       inkscape:connector-curvature="0"
       id="path3738"
       d="M 117.17,126.82 A 65.66,65.66 0 0 1 64.92,101.63 l -0.71,-0.92 h 8.15 l 0.17,0.21 c 11,13.75 26.81,21.64 43.24,21.64 h 1 a 61.62,61.62 0 0 0 45.1,-21.65 l 0.17,-0.2 h 8.14 l -0.71,0.92 a 65.66,65.66 0 0 1 -52.3,25.19 z"
       class="cls-2" />
  </g>
</svg>
